<svg xmlns="http://www.w3.org/2000/svg" xmlns:xlink="http://www.w3.org/1999/xlink" width="500" zoomAndPan="magnify" viewBox="0 0 375 374.999991" height="500" preserveAspectRatio="xMidYMid meet" version="1.0"><defs><g/></defs><g fill="#1e2b4b" fill-opacity="1"><g transform="translate(9.635476, 220.903815)"><g><path d="M 62 0 L 36.84375 0 L 0.671875 -64.515625 L 28.125 -64.515625 L 49.4375 -18.40625 L 70.71875 -64.515625 L 98.171875 -64.515625 Z M 62 0 "/></g></g></g><g fill="#1e2b4b" fill-opacity="1"><g transform="translate(122.298251, 220.903815)"><g><path d="M 45.390625 1.390625 C 29.648438 1.390625 18.566406 -1.875 12.140625 -8.40625 C 6.742188 -13.894531 4.046875 -21.832031 4.046875 -32.21875 L 4.046875 -64.515625 L 31.140625 -64.515625 L 31.140625 -32.21875 C 31.140625 -27.71875 31.898438 -24.160156 33.421875 -21.546875 C 35.617188 -17.796875 39.609375 -15.921875 45.390625 -15.921875 C 51.242188 -15.921875 55.25 -17.796875 57.40625 -21.546875 C 58.9375 -24.242188 59.703125 -27.800781 59.703125 -32.21875 L 59.703125 -64.515625 L 86.78125 -64.515625 L 86.78125 -31.859375 C 86.78125 -21.710938 84.097656 -13.894531 78.734375 -8.40625 C 72.285156 -1.875 61.171875 1.390625 45.390625 1.390625 Z M 45.390625 1.390625 "/></g></g></g><g fill="#1e2b4b" fill-opacity="1"><g transform="translate(226.952891, 220.903815)"><g><path d="M 34.28125 0 L 7.203125 0 L 7.203125 -64.5625 L 34.28125 -64.5625 Z M 34.28125 0 "/></g></g></g><g fill="#1e2b4b" fill-opacity="1"><g transform="translate(282.254033, 220.903815)"><g><path d="M 55.0625 0 L 27.984375 0 L 27.984375 -48.59375 L 2.703125 -48.59375 L 2.703125 -64.5625 L 80.359375 -64.5625 L 80.359375 -48.59375 L 55.0625 -48.59375 Z M 55.0625 0 "/></g></g></g></svg>