<svg xmlns="http://www.w3.org/2000/svg" xmlns:xlink="http://www.w3.org/1999/xlink" width="500" zoomAndPan="magnify" viewBox="0 0 375 374.999991" height="500" preserveAspectRatio="xMidYMid meet" version="1.0"><defs><g/></defs><g fill="#1e2b4b" fill-opacity="1"><g transform="translate(9.635476, 215.470624)"><g><path d="M 62 0 L 36.84375 0 L 0.671875 -64.515625 L 28.125 -64.515625 L 49.4375 -18.40625 L 70.71875 -64.515625 L 98.171875 -64.515625 Z M 62 0 "/></g></g></g><g fill="#1e2b4b" fill-opacity="1"><g transform="translate(122.298251, 215.470624)"><g><path d="M 45.390625 1.390625 C 29.648438 1.390625 18.566406 -1.875 12.140625 -8.40625 C 6.742188 -13.894531 4.046875 -21.832031 4.046875 -32.21875 L 4.046875 -64.515625 L 31.140625 -64.515625 L 31.140625 -32.21875 C 31.140625 -27.71875 31.898438 -24.160156 33.421875 -21.546875 C 35.617188 -17.796875 39.609375 -15.921875 45.390625 -15.921875 C 51.242188 -15.921875 55.25 -17.796875 57.40625 -21.546875 C 58.9375 -24.242188 59.703125 -27.800781 59.703125 -32.21875 L 59.703125 -64.515625 L 86.78125 -64.515625 L 86.78125 -31.859375 C 86.78125 -21.710938 84.097656 -13.894531 78.734375 -8.40625 C 72.285156 -1.875 61.171875 1.390625 45.390625 1.390625 Z M 45.390625 1.390625 "/></g></g></g><g fill="#1e2b4b" fill-opacity="1"><g transform="translate(226.952891, 215.470624)"><g><path d="M 34.28125 0 L 7.203125 0 L 7.203125 -64.5625 L 34.28125 -64.5625 Z M 34.28125 0 "/></g></g></g><g fill="#1e2b4b" fill-opacity="1"><g transform="translate(282.254033, 215.470624)"><g><path d="M 55.0625 0 L 27.984375 0 L 27.984375 -48.59375 L 2.703125 -48.59375 L 2.703125 -64.5625 L 80.359375 -64.5625 L 80.359375 -48.59375 L 55.0625 -48.59375 Z M 55.0625 0 "/></g></g></g><g fill="#1e2b4b" fill-opacity="1"><g transform="translate(73.485345, 271.98516)"><g><path d="M 9.949219 0.339844 C 14.558594 0.339844 18.316406 -2.390625 18.316406 -7.003906 C 18.316406 -16.097656 6.191406 -13.875 6.191406 -19.128906 C 6.191406 -21.132812 7.769531 -22.074219 9.648438 -22.074219 C 11.355469 -22.074219 12.894531 -21.304688 14.046875 -19.851562 L 16.992188 -22.542969 C 15.371094 -24.550781 12.679688 -25.957031 9.648438 -25.957031 C 5.636719 -25.957031 2.007812 -23.441406 2.007812 -18.828125 C 2.007812 -10.332031 14.132812 -12.425781 14.132812 -7.003906 C 14.132812 -4.910156 12.382812 -3.671875 9.992188 -3.671875 C 7.386719 -3.671875 5.421875 -5.125 4.527344 -7.300781 L 0.9375 -5.125 C 2.433594 -1.921875 5.847656 0.339844 9.949219 0.339844 Z M 9.949219 0.339844 "/></g></g></g><g fill="#1e2b4b" fill-opacity="1"><g transform="translate(103.115398, 271.98516)"><g><path d="M 17.71875 -21.816406 L 17.71875 -25.617188 L 3.03125 -25.617188 L 3.03125 0 L 17.71875 0 L 17.71875 -3.800781 L 7.214844 -3.800781 L 7.214844 -10.886719 L 16.308594 -10.886719 L 16.308594 -14.730469 L 7.214844 -14.730469 L 7.214844 -21.816406 Z M 17.71875 -21.816406 "/></g></g></g><g fill="#1e2b4b" fill-opacity="1"><g transform="translate(133.257694, 271.98516)"><g><path d="M 15.027344 -13.832031 L 15.027344 -10.332031 L 23.738281 -10.332031 C 22.714844 -6.488281 19.253906 -3.800781 15.070312 -3.800781 C 9.992188 -3.800781 6.019531 -7.726562 6.019531 -12.808594 C 6.019531 -17.890625 9.992188 -21.816406 15.070312 -21.816406 C 18.53125 -21.816406 21.476562 -19.980469 23.011719 -17.164062 L 26.597656 -19.085938 C 24.378906 -23.183594 20.023438 -25.957031 15.070312 -25.957031 C 7.769531 -25.957031 1.921875 -20.066406 1.921875 -12.808594 C 1.921875 -5.550781 7.769531 0.339844 15.070312 0.339844 C 22.328125 0.339844 28.222656 -5.550781 28.222656 -12.808594 L 28.222656 -13.832031 Z M 15.027344 -13.832031 "/></g></g></g><g fill="#1e2b4b" fill-opacity="1"><g transform="translate(173.601986, 271.98516)"><g><path d="M 12.808594 0.339844 C 18.613281 0.339844 22.96875 -3.371094 22.96875 -8.324219 L 22.96875 -25.617188 L 18.785156 -25.617188 L 18.785156 -9.050781 C 18.785156 -5.890625 16.222656 -3.542969 12.808594 -3.542969 C 9.394531 -3.542969 6.875 -5.890625 6.875 -9.050781 L 6.875 -25.617188 L 2.691406 -25.617188 L 2.691406 -8.324219 C 2.691406 -3.371094 7.003906 0.339844 12.808594 0.339844 Z M 12.808594 0.339844 "/></g></g></g><g fill="#1e2b4b" fill-opacity="1"><g transform="translate(209.506921, 271.98516)"><g><path d="M 14.6875 -11.144531 C 17.890625 -11.828125 20.238281 -14.644531 20.238281 -18.101562 C 20.238281 -22.285156 16.992188 -25.617188 12.851562 -25.617188 L 2.816406 -25.617188 L 2.816406 0 L 7.003906 0 L 7.003906 -10.757812 L 10.546875 -10.757812 L 17.335938 0 L 22.03125 0 Z M 7.003906 -14.386719 L 7.003906 -21.730469 L 12.339844 -21.730469 C 14.515625 -21.730469 16.140625 -20.238281 16.140625 -18.058594 C 16.140625 -15.882812 14.515625 -14.386719 12.339844 -14.386719 Z M 7.003906 -14.386719 "/></g></g></g><g fill="#1e2b4b" fill-opacity="1"><g transform="translate(241.868888, 271.98516)"><g><path d="M 14.984375 0.339844 C 22.242188 0.339844 28.136719 -5.550781 28.136719 -12.808594 C 28.136719 -20.066406 22.242188 -25.957031 14.984375 -25.957031 C 7.726562 -25.957031 1.835938 -20.066406 1.835938 -12.808594 C 1.835938 -5.550781 7.726562 0.339844 14.984375 0.339844 Z M 14.984375 -3.800781 C 9.949219 -3.800781 5.976562 -7.726562 5.976562 -12.808594 C 5.976562 -17.890625 9.949219 -21.816406 14.984375 -21.816406 C 20.066406 -21.816406 23.996094 -17.890625 23.996094 -12.808594 C 23.996094 -7.726562 20.066406 -3.800781 14.984375 -3.800781 Z M 14.984375 -3.800781 "/></g></g></g><g fill="#1e2b4b" fill-opacity="1"><g transform="translate(282.085111, 271.98516)"><g><path d="M 9.949219 0.339844 C 14.558594 0.339844 18.316406 -2.390625 18.316406 -7.003906 C 18.316406 -16.097656 6.191406 -13.875 6.191406 -19.128906 C 6.191406 -21.132812 7.769531 -22.074219 9.648438 -22.074219 C 11.355469 -22.074219 12.894531 -21.304688 14.046875 -19.851562 L 16.992188 -22.542969 C 15.371094 -24.550781 12.679688 -25.957031 9.648438 -25.957031 C 5.636719 -25.957031 2.007812 -23.441406 2.007812 -18.828125 C 2.007812 -10.332031 14.132812 -12.425781 14.132812 -7.003906 C 14.132812 -4.910156 12.382812 -3.671875 9.992188 -3.671875 C 7.386719 -3.671875 5.421875 -5.125 4.527344 -7.300781 L 0.9375 -5.125 C 2.433594 -1.921875 5.847656 0.339844 9.949219 0.339844 Z M 9.949219 0.339844 "/></g></g></g></svg>